<svg
   width="400"
   height="400"
   viewBox="0 0 200 200"
   xmlns="http://www.w3.org/2000/svg"
   xmlns:svg="http://www.w3.org/2000/svg">
  <path
     style="fill:none;fill-opacity:1;fill-rule:evenodd;stroke:#9BC834;stroke-width:8;stroke-opacity:1"
     d="m 92.92976,164.8918 -5.191037,-16.28561 19.848087,-31.75694 -3.86783,-12.72313 22.59628,-23.105212 -2.13749,-9.160655 -0.10176,-3.460693 0.10176,-5.191037 h 1.01785"
     id="path47" />
  <path
     style="fill:none;fill-opacity:1;fill-rule:evenodd;stroke:#9BC834;stroke-width:8;stroke-opacity:1"
     d="m 126.38838,81.100384 7.82308,-0.71176 3.33784,4.473916 1.356,-0.406718 3.12923,3.660477"
     id="path48" />
  <path
     style="fill:none;fill-opacity:1;fill-rule:evenodd;stroke:#9BC834;stroke-width:8;stroke-opacity:1"
     d="m 134.45599,80.407152 24.38189,-8.217863 6.55648,-15.187444"
     id="path49" />
  <path
     style="fill:none;fill-opacity:1;fill-rule:evenodd;stroke:#9BC834;stroke-width:8;stroke-opacity:1"
     d="m 159.09611,71.936921 10.40009,6.441575"
     id="path50" />
  <path
     style="fill:none;fill-opacity:1;fill-rule:evenodd;stroke:#9BC834;stroke-width:8;stroke-opacity:1"
     d="M 103.8569,104.43269 82.840815,97.451316 75.067742,99.53853 61.071036,91.097629 52.108384,98.31499"
     id="path51" />
  <path
     style="fill:none;fill-opacity:1;fill-rule:evenodd;stroke:#9BC834;stroke-width:8;stroke-opacity:1"
     d="M 61.176971,91.189673 47.430146,81.761222 37.929722,87.303136"
     id="path52" />
  <path
     style="fill:none;fill-opacity:1;fill-rule:evenodd;stroke:#9BC834;stroke-width:8;stroke-opacity:1"
     d="M 47.214227,82.121086 46.710416,75.067742 41.312449,69.093991"
     id="path53" />
  <path
     style="fill:none;fill-opacity:1;fill-rule:evenodd;stroke:#9BC834;stroke-width:8;stroke-opacity:1"
     d="M 103.64099,104.21677 95.651994,83.128707 92.197293,82.912788 84.064355,78.378496 73.183458,81.275371"
     id="path54" />
  <path
     style="fill:none;fill-opacity:1;fill-rule:evenodd;stroke:#9BC834;stroke-width:8;stroke-opacity:1"
     d="M 84.328923,78.476282 71.351328,65.854934 51.820493,57.362407 44.407284,39.87299 l -6.9094,0.143946 -0.575783,1.151567 -12.523286,1.00762"
     id="path55" />
  <path
     style="fill:none;fill-opacity:1;fill-rule:evenodd;stroke:#9BC834;stroke-width:8;stroke-opacity:1"
     d="M 38.217614,40.016936 27.853515,60.529215 20.656224,51.24471 18.784928,48.077902 11.155801,45.630823"
     id="path56" />
  <path
     style="fill:none;fill-opacity:1;fill-rule:evenodd;stroke:#9BC834;stroke-width:8;stroke-opacity:1"
     d="M 27.695202,61.089019 8.9102737,70.877334"
     id="path57" />
  <path
     style="fill:none;fill-opacity:1;fill-rule:evenodd;stroke:#9BC834;stroke-width:8;stroke-opacity:1"
     d="M 44.55641,40.12876 44.963551,35.141293 29.83277,26.558003"
     id="path58" />
  <path
     style="fill:none;fill-opacity:1;fill-rule:evenodd;stroke:#9BC834;stroke-width:8;stroke-opacity:1"
     d="m 71.80936,66.414752 2.595519,-19.848086 6.463352,-11.349035 10.229398,-3.969617 3.511585,-3.409799"
     id="path59" />
  <path
     style="fill:none;fill-opacity:1;fill-rule:evenodd;stroke:#9BC834;stroke-width:8;stroke-opacity:1"
     d="M 80.485258,35.741463 79.009375,22.254942 72.037099,5.969332"
     id="path60" />
  <path
     style="fill:none;fill-opacity:1;fill-rule:evenodd;stroke:#9BC834;stroke-width:8;stroke-opacity:1"
     d="M 76.23701,16.183825 62.037995,13.639198 50.790746,13.486521"
     id="path61" />
  <path
     style="fill:none;fill-opacity:1;fill-rule:evenodd;stroke:#9BC834;stroke-width:8;stroke-opacity:1"
     d="m 95.576172,83.26018 10.636538,-31.502477 11.53496,-13.540089 -3.88653,-9.500425 1.22354,-11.371718"
     id="path62" />
  <path
     style="fill:none;fill-opacity:1;fill-rule:evenodd;stroke:#9BC834;stroke-width:8;stroke-opacity:1"
     d="m 117.6757,38.217614 7.70111,5.46994 8.92464,-1.079593 7.34123,-8.348858"
     id="path63" />
</svg>
